<svg width="422" height="37" viewBox="0 0 422 37" fill="none" xmlns="http://www.w3.org/2000/svg">
<path d="M7.04 14.78C7.04 16.2867 7.34667 17.6533 7.96 18.88C8.58667 20.0933 9.44667 21.06 10.54 21.78C11.6467 22.5 12.9267 22.86 14.38 22.86C15.8333 22.86 17.1067 22.5 18.2 21.78C19.3067 21.06 20.1667 20.0933 20.78 18.88C21.4067 17.6533 21.72 16.2867 21.72 14.78C21.72 13.2733 21.4067 11.9133 20.78 10.7C20.1667 9.48667 19.3067 8.52 18.2 7.8C17.1067 7.06667 15.8333 6.7 14.38 6.7C12.9267 6.7 11.6467 7.06667 10.54 7.8C9.44667 8.52 8.58667 9.48667 7.96 10.7C7.34667 11.9133 7.04 13.2733 7.04 14.78ZM0.82 14.78C0.82 12.86 1.16 11.0733 1.84 9.42C2.52 7.75333 3.47333 6.3 4.7 5.06C5.92667 3.82 7.36667 2.85333 9.02 2.16C10.6733 1.46666 12.46 1.12 14.38 1.12C16.3267 1.12 18.12 1.46666 19.76 2.16C21.4133 2.85333 22.8467 3.82 24.06 5.06C25.2867 6.3 26.2333 7.75333 26.9 9.42C27.58 11.0733 27.92 12.86 27.92 14.78C27.92 16.7133 27.5933 18.5133 26.94 20.18C26.2867 21.8333 25.3533 23.2867 24.14 24.54C22.9267 25.78 21.4933 26.7467 19.84 27.44C18.1867 28.1333 16.3667 28.48 14.38 28.48C12.3533 28.48 10.5067 28.1333 8.84 27.44C7.18667 26.7467 5.76 25.78 4.56 24.54C3.36 23.2867 2.43333 21.8333 1.78 20.18C1.14 18.5133 0.82 16.7133 0.82 14.78ZM38.4075 28.48C36.8208 28.48 35.4408 28.0933 34.2675 27.32C33.0942 26.5333 32.1808 25.4867 31.5275 24.18C30.8875 22.86 30.5675 21.4 30.5675 19.8C30.5675 18.2 30.8875 16.7467 31.5275 15.44C32.1808 14.12 33.0942 13.0667 34.2675 12.28C35.4408 11.4933 36.8208 11.1 38.4075 11.1C39.4608 11.1 40.3942 11.2667 41.2075 11.6C42.0208 11.92 42.6808 12.3067 43.1875 12.76C43.6942 13.2 44.0008 13.6067 44.1075 13.98V0.479999H50.1875V28H44.1675V25.34C43.9142 25.8333 43.5008 26.3267 42.9275 26.82C42.3542 27.3 41.6808 27.6933 40.9075 28C40.1342 28.32 39.3008 28.48 38.4075 28.48ZM40.2675 23.7C41.0008 23.7 41.6542 23.5333 42.2275 23.2C42.8142 22.8667 43.2742 22.4067 43.6075 21.82C43.9408 21.22 44.1075 20.5467 44.1075 19.8C44.1075 19.0533 43.9408 18.3867 43.6075 17.8C43.2742 17.2 42.8142 16.7333 42.2275 16.4C41.6542 16.0533 41.0008 15.88 40.2675 15.88C39.5608 15.88 38.9208 16.0533 38.3475 16.4C37.7875 16.7333 37.3408 17.2 37.0075 17.8C36.6875 18.3867 36.5275 19.0533 36.5275 19.8C36.5275 20.5467 36.6875 21.22 37.0075 21.82C37.3408 22.4067 37.7875 22.8667 38.3475 23.2C38.9208 23.5333 39.5608 23.7 40.2675 23.7ZM66.4513 28V25.34C66.3313 25.6067 66.0246 25.9933 65.5313 26.5C65.0513 27.0067 64.4113 27.4667 63.6113 27.88C62.8113 28.28 61.8779 28.48 60.8113 28.48C59.2113 28.48 57.8113 28.0933 56.6113 27.32C55.4113 26.5333 54.4779 25.4867 53.8113 24.18C53.1446 22.86 52.8113 21.4 52.8113 19.8C52.8113 18.2 53.1446 16.7467 53.8113 15.44C54.4779 14.12 55.4113 13.0667 56.6113 12.28C57.8113 11.4933 59.2113 11.1 60.8113 11.1C61.8379 11.1 62.7379 11.2667 63.5113 11.6C64.2846 11.92 64.9113 12.3067 65.3913 12.76C65.8713 13.2 66.2046 13.6067 66.3913 13.98V11.58H72.4313V28H66.4513ZM58.7713 19.8C58.7713 20.5467 58.9446 21.22 59.2913 21.82C59.6379 22.4067 60.0979 22.8667 60.6713 23.2C61.2579 23.5333 61.9046 23.7 62.6113 23.7C63.3446 23.7 63.9913 23.5333 64.5513 23.2C65.1113 22.8667 65.5513 22.4067 65.8713 21.82C66.2046 21.22 66.3713 20.5467 66.3713 19.8C66.3713 19.0533 66.2046 18.3867 65.8713 17.8C65.5513 17.2 65.1113 16.7333 64.5513 16.4C63.9913 16.0533 63.3446 15.88 62.6113 15.88C61.9046 15.88 61.2579 16.0533 60.6713 16.4C60.0979 16.7333 59.6379 17.2 59.2913 17.8C58.9446 18.3867 58.7713 19.0533 58.7713 19.8ZM93.5953 18.5L84.4953 1.6H91.7553L96.5753 11.66L101.415 1.6H108.635L99.5753 18.5V28H93.5953V18.5ZM114.042 19.18C114.042 20.4867 114.288 21.5333 114.782 22.32C115.275 23.0933 116.102 23.48 117.262 23.48C118.448 23.48 119.282 23.0933 119.762 22.32C120.255 21.5333 120.502 20.4867 120.502 19.18V11.58H126.502V19.82C126.502 21.58 126.135 23.1133 125.402 24.42C124.682 25.7133 123.635 26.7133 122.262 27.42C120.888 28.1267 119.222 28.48 117.262 28.48C115.315 28.48 113.655 28.1267 112.282 27.42C110.908 26.7133 109.862 25.7133 109.142 24.42C108.422 23.1133 108.062 21.58 108.062 19.82V11.58H114.042V19.18ZM121.582 8.72C120.768 8.72 120.075 8.43333 119.502 7.86C118.928 7.28667 118.642 6.6 118.642 5.8C118.642 5 118.928 4.31333 119.502 3.74C120.075 3.15333 120.768 2.86 121.582 2.86C122.382 2.86 123.068 3.14666 123.642 3.72C124.215 4.29333 124.502 4.98667 124.502 5.8C124.502 6.61333 124.215 7.30667 123.642 7.88C123.068 8.44 122.382 8.72 121.582 8.72ZM113.542 8.72C112.715 8.72 112.015 8.43333 111.442 7.86C110.882 7.28667 110.602 6.6 110.602 5.8C110.602 5 110.882 4.31333 111.442 3.74C112.015 3.15333 112.715 2.86 113.542 2.86C114.342 2.86 115.028 3.14666 115.602 3.72C116.175 4.29333 116.462 4.98667 116.462 5.8C116.462 6.61333 116.175 7.30667 115.602 7.88C115.028 8.44 114.342 8.72 113.542 8.72ZM141.396 11.58H148.276L140.536 19.42L149.076 28H142.036L135.696 21.4V28H129.616V0.479999H135.696V17.3L141.396 11.58ZM158.063 11.1C159.143 11.1 160.13 11.1933 161.023 11.38C161.917 11.5533 162.663 11.7533 163.263 11.98C163.877 12.2067 164.27 12.3933 164.443 12.54L162.463 16.12C162.21 15.9333 161.737 15.6933 161.043 15.4C160.363 15.1067 159.603 14.96 158.763 14.96C158.123 14.96 157.583 15.06 157.143 15.26C156.703 15.4467 156.483 15.7467 156.483 16.16C156.483 16.5733 156.723 16.9067 157.203 17.16C157.697 17.4 158.403 17.6133 159.323 17.8C160.123 17.96 160.937 18.2133 161.763 18.56C162.59 18.9067 163.277 19.42 163.823 20.1C164.383 20.7667 164.663 21.66 164.663 22.78C164.663 23.9267 164.417 24.8733 163.923 25.62C163.43 26.3667 162.777 26.9467 161.963 27.36C161.15 27.7733 160.27 28.06 159.323 28.22C158.377 28.3933 157.457 28.48 156.563 28.48C155.31 28.48 154.217 28.3667 153.283 28.14C152.363 27.9133 151.617 27.6533 151.043 27.36C150.47 27.0667 150.07 26.8333 149.843 26.66L151.803 22.66C152.15 22.9533 152.717 23.2867 153.503 23.66C154.29 24.02 155.123 24.2 156.003 24.2C156.857 24.2 157.517 24.0733 157.983 23.82C158.45 23.5667 158.683 23.2333 158.683 22.82C158.683 22.4867 158.57 22.22 158.343 22.02C158.117 21.82 157.797 21.6467 157.383 21.5C156.97 21.3533 156.47 21.22 155.883 21.1C155.35 20.9933 154.783 20.8267 154.183 20.6C153.583 20.3733 153.017 20.0667 152.483 19.68C151.95 19.28 151.517 18.78 151.183 18.18C150.85 17.58 150.683 16.8533 150.683 16C150.683 14.9067 151.037 14 151.743 13.28C152.45 12.56 153.363 12.02 154.483 11.66C155.603 11.2867 156.797 11.1 158.063 11.1ZM172.731 21.08C172.771 21.6667 172.958 22.1867 173.291 22.64C173.624 23.0933 174.084 23.4533 174.671 23.72C175.271 23.9733 175.978 24.1 176.791 24.1C177.564 24.1 178.258 24.02 178.871 23.86C179.498 23.7 180.038 23.5 180.491 23.26C180.958 23.02 181.318 22.7733 181.571 22.52L183.931 26.28C183.598 26.64 183.124 26.9933 182.511 27.34C181.911 27.6733 181.118 27.9467 180.131 28.16C179.144 28.3733 177.898 28.48 176.391 28.48C174.578 28.48 172.964 28.14 171.551 27.46C170.138 26.78 169.024 25.78 168.211 24.46C167.398 23.14 166.991 21.5267 166.991 19.62C166.991 18.02 167.338 16.58 168.031 15.3C168.738 14.0067 169.758 12.9867 171.091 12.24C172.424 11.48 174.031 11.1 175.911 11.1C177.698 11.1 179.244 11.4267 180.551 12.08C181.871 12.7333 182.884 13.7067 183.591 15C184.311 16.28 184.671 17.88 184.671 19.8C184.671 19.9067 184.664 20.12 184.651 20.44C184.651 20.76 184.638 20.9733 184.611 21.08H172.731ZM178.951 17.9C178.938 17.4733 178.824 17.0533 178.611 16.64C178.398 16.2133 178.078 15.8667 177.651 15.6C177.224 15.32 176.678 15.18 176.011 15.18C175.344 15.18 174.778 15.3133 174.311 15.58C173.858 15.8333 173.511 16.1667 173.271 16.58C173.031 16.9933 172.898 17.4333 172.871 17.9H178.951ZM193.893 28H187.793V0.479999H193.893V28ZM196.413 11.58H199.213V4.84H205.233V11.58H208.913V16.58H205.233V21.16C205.233 21.84 205.333 22.3933 205.533 22.82C205.733 23.2333 206.099 23.44 206.633 23.44C206.993 23.44 207.299 23.36 207.553 23.2C207.806 23.04 207.959 22.9333 208.013 22.88L210.093 27.2C209.999 27.28 209.706 27.4267 209.213 27.64C208.733 27.8533 208.119 28.0467 207.373 28.22C206.626 28.3933 205.793 28.48 204.873 28.48C203.233 28.48 201.879 28.02 200.813 27.1C199.746 26.1667 199.213 24.7333 199.213 22.8V16.58H196.413V11.58ZM234.924 11.1C236.164 11.1 237.257 11.36 238.204 11.88C239.151 12.3867 239.891 13.1733 240.424 14.24C240.971 15.3067 241.244 16.68 241.244 18.36V28H235.264V19.28C235.264 18.1333 235.091 17.2067 234.744 16.5C234.397 15.7933 233.711 15.44 232.684 15.44C232.071 15.44 231.531 15.6 231.064 15.92C230.597 16.24 230.237 16.6867 229.984 17.26C229.731 17.82 229.604 18.4933 229.604 19.28V28H224.024V19.28C224.024 18.1333 223.831 17.2067 223.444 16.5C223.071 15.7933 222.404 15.44 221.444 15.44C220.831 15.44 220.291 15.6 219.824 15.92C219.357 16.2267 218.997 16.6667 218.744 17.24C218.504 17.8 218.384 18.48 218.384 19.28V28H212.344V11.58H218.384V13.92C218.544 13.5067 218.891 13.0867 219.424 12.66C219.971 12.22 220.644 11.8533 221.444 11.56C222.244 11.2533 223.091 11.1 223.984 11.1C224.957 11.1 225.771 11.2467 226.424 11.54C227.077 11.82 227.611 12.2 228.024 12.68C228.451 13.16 228.791 13.68 229.044 14.24C229.231 13.76 229.597 13.28 230.144 12.8C230.704 12.3067 231.397 11.9 232.224 11.58C233.064 11.26 233.964 11.1 234.924 11.1ZM249.606 21.08C249.646 21.6667 249.833 22.1867 250.166 22.64C250.499 23.0933 250.959 23.4533 251.546 23.72C252.146 23.9733 252.853 24.1 253.666 24.1C254.439 24.1 255.133 24.02 255.746 23.86C256.373 23.7 256.913 23.5 257.366 23.26C257.833 23.02 258.193 22.7733 258.446 22.52L260.806 26.28C260.473 26.64 259.999 26.9933 259.386 27.34C258.786 27.6733 257.993 27.9467 257.006 28.16C256.019 28.3733 254.773 28.48 253.266 28.48C251.453 28.48 249.839 28.14 248.426 27.46C247.013 26.78 245.899 25.78 245.086 24.46C244.273 23.14 243.866 21.5267 243.866 19.62C243.866 18.02 244.213 16.58 244.906 15.3C245.613 14.0067 246.633 12.9867 247.966 12.24C249.299 11.48 250.906 11.1 252.786 11.1C254.573 11.1 256.119 11.4267 257.426 12.08C258.746 12.7333 259.759 13.7067 260.466 15C261.186 16.28 261.546 17.88 261.546 19.8C261.546 19.9067 261.539 20.12 261.526 20.44C261.526 20.76 261.513 20.9733 261.486 21.08H249.606ZM255.826 17.9C255.813 17.4733 255.699 17.0533 255.486 16.64C255.273 16.2133 254.953 15.8667 254.526 15.6C254.099 15.32 253.553 15.18 252.886 15.18C252.219 15.18 251.653 15.3133 251.186 15.58C250.733 15.8333 250.386 16.1667 250.146 16.58C249.906 16.9933 249.773 17.4333 249.746 17.9H255.826ZM275.414 1.6H284.474C285.98 1.6 287.374 1.80667 288.654 2.22C289.947 2.63333 290.987 3.31333 291.774 4.26C292.574 5.19333 292.974 6.46 292.974 8.06C292.974 9.11333 292.774 10.0533 292.374 10.88C291.987 11.7067 291.467 12.3867 290.814 12.92C290.174 13.44 289.474 13.7867 288.714 13.96C289.38 14.04 290.027 14.2333 290.654 14.54C291.294 14.8333 291.867 15.2467 292.374 15.78C292.894 16.3 293.3 16.9533 293.594 17.74C293.9 18.5133 294.054 19.4333 294.054 20.5C294.054 21.98 293.72 23.2867 293.054 24.42C292.4 25.54 291.44 26.42 290.174 27.06C288.92 27.6867 287.38 28 285.554 28H275.414V1.6ZM281.394 23.22H284.114C284.967 23.22 285.66 23.0933 286.194 22.84C286.74 22.5733 287.14 22.2 287.394 21.72C287.647 21.2267 287.774 20.64 287.774 19.96C287.774 18.8933 287.44 18.1133 286.774 17.62C286.12 17.1133 285.2 16.86 284.014 16.86H281.394V23.22ZM281.394 12.18H283.814C284.52 12.18 285.107 12.0533 285.574 11.8C286.054 11.5467 286.414 11.1933 286.654 10.74C286.907 10.2733 287.034 9.74 287.034 9.14C287.034 8.06 286.727 7.33333 286.114 6.96C285.5 6.57333 284.66 6.38 283.594 6.38H281.394V12.18ZM310.358 28V25.34C310.238 25.6067 309.931 25.9933 309.438 26.5C308.958 27.0067 308.318 27.4667 307.518 27.88C306.718 28.28 305.784 28.48 304.718 28.48C303.118 28.48 301.718 28.0933 300.518 27.32C299.318 26.5333 298.384 25.4867 297.718 24.18C297.051 22.86 296.718 21.4 296.718 19.8C296.718 18.2 297.051 16.7467 297.718 15.44C298.384 14.12 299.318 13.0667 300.518 12.28C301.718 11.4933 303.118 11.1 304.718 11.1C305.744 11.1 306.644 11.2667 307.418 11.6C308.191 11.92 308.818 12.3067 309.298 12.76C309.778 13.2 310.111 13.6067 310.298 13.98V11.58H316.338V28H310.358ZM302.678 19.8C302.678 20.5467 302.851 21.22 303.198 21.82C303.544 22.4067 304.004 22.8667 304.578 23.2C305.164 23.5333 305.811 23.7 306.518 23.7C307.251 23.7 307.898 23.5333 308.458 23.2C309.018 22.8667 309.458 22.4067 309.778 21.82C310.111 21.22 310.278 20.5467 310.278 19.8C310.278 19.0533 310.111 18.3867 309.778 17.8C309.458 17.2 309.018 16.7333 308.458 16.4C307.898 16.0533 307.251 15.88 306.518 15.88C305.811 15.88 305.164 16.0533 304.578 16.4C304.004 16.7333 303.544 17.2 303.198 17.8C302.851 18.3867 302.678 19.0533 302.678 19.8ZM327.556 11.1C328.636 11.1 329.622 11.1933 330.516 11.38C331.409 11.5533 332.156 11.7533 332.756 11.98C333.369 12.2067 333.762 12.3933 333.936 12.54L331.956 16.12C331.702 15.9333 331.229 15.6933 330.536 15.4C329.856 15.1067 329.096 14.96 328.256 14.96C327.616 14.96 327.076 15.06 326.636 15.26C326.196 15.4467 325.976 15.7467 325.976 16.16C325.976 16.5733 326.216 16.9067 326.696 17.16C327.189 17.4 327.896 17.6133 328.816 17.8C329.616 17.96 330.429 18.2133 331.256 18.56C332.082 18.9067 332.769 19.42 333.316 20.1C333.876 20.7667 334.156 21.66 334.156 22.78C334.156 23.9267 333.909 24.8733 333.416 25.62C332.922 26.3667 332.269 26.9467 331.456 27.36C330.642 27.7733 329.762 28.06 328.816 28.22C327.869 28.3933 326.949 28.48 326.056 28.48C324.802 28.48 323.709 28.3667 322.776 28.14C321.856 27.9133 321.109 27.6533 320.536 27.36C319.962 27.0667 319.562 26.8333 319.336 26.66L321.296 22.66C321.642 22.9533 322.209 23.2867 322.996 23.66C323.782 24.02 324.616 24.2 325.496 24.2C326.349 24.2 327.009 24.0733 327.476 23.82C327.942 23.5667 328.176 23.2333 328.176 22.82C328.176 22.4867 328.062 22.22 327.836 22.02C327.609 21.82 327.289 21.6467 326.876 21.5C326.462 21.3533 325.962 21.22 325.376 21.1C324.842 20.9933 324.276 20.8267 323.676 20.6C323.076 20.3733 322.509 20.0667 321.976 19.68C321.442 19.28 321.009 18.78 320.676 18.18C320.342 17.58 320.176 16.8533 320.176 16C320.176 14.9067 320.529 14 321.236 13.28C321.942 12.56 322.856 12.02 323.976 11.66C325.096 11.2867 326.289 11.1 327.556 11.1ZM326.736 36.66C325.469 36.66 324.396 36.4667 323.516 36.08C322.649 35.6933 322.049 35.32 321.716 34.96L323.716 32.7C323.956 32.9667 324.302 33.24 324.756 33.52C325.222 33.8 325.716 33.94 326.236 33.94C326.716 33.94 327.096 33.8267 327.376 33.6C327.669 33.3733 327.816 33.0733 327.816 32.7C327.816 32.2467 327.636 31.9133 327.276 31.7C326.916 31.4867 326.489 31.38 325.996 31.38C325.582 31.38 325.229 31.4067 324.936 31.46C324.656 31.5267 324.469 31.5933 324.376 31.66L324.076 31.42L325.616 27.16L327.736 27.88L327.016 29.68C327.762 29.6267 328.469 29.7133 329.136 29.94C329.802 30.1667 330.342 30.5133 330.756 30.98C331.182 31.4467 331.396 32.0267 331.396 32.72C331.396 33.5467 331.182 34.2533 330.756 34.84C330.329 35.4267 329.756 35.8733 329.036 36.18C328.329 36.5 327.562 36.66 326.736 36.66ZM350.123 28V25.34C350.003 25.6067 349.696 25.9933 349.203 26.5C348.723 27.0067 348.083 27.4667 347.283 27.88C346.483 28.28 345.55 28.48 344.483 28.48C342.883 28.48 341.483 28.0933 340.283 27.32C339.083 26.5333 338.15 25.4867 337.483 24.18C336.816 22.86 336.483 21.4 336.483 19.8C336.483 18.2 336.816 16.7467 337.483 15.44C338.15 14.12 339.083 13.0667 340.283 12.28C341.483 11.4933 342.883 11.1 344.483 11.1C345.51 11.1 346.41 11.2667 347.183 11.6C347.956 11.92 348.583 12.3067 349.063 12.76C349.543 13.2 349.876 13.6067 350.063 13.98V11.58H356.103V28H350.123ZM342.443 19.8C342.443 20.5467 342.616 21.22 342.963 21.82C343.31 22.4067 343.77 22.8667 344.343 23.2C344.93 23.5333 345.576 23.7 346.283 23.7C347.016 23.7 347.663 23.5333 348.223 23.2C348.783 22.8667 349.223 22.4067 349.543 21.82C349.876 21.22 350.043 20.5467 350.043 19.8C350.043 19.0533 349.876 18.3867 349.543 17.8C349.223 17.2 348.783 16.7333 348.223 16.4C347.663 16.0533 347.016 15.88 346.283 15.88C345.576 15.88 344.93 16.0533 344.343 16.4C343.77 16.7333 343.31 17.2 342.963 17.8C342.616 18.3867 342.443 19.0533 342.443 19.8ZM365.521 28H359.441V11.58H365.521V14.12H365.421C365.528 13.8133 365.788 13.4267 366.201 12.96C366.615 12.48 367.195 12.0533 367.941 11.68C368.688 11.2933 369.601 11.1 370.681 11.1C371.441 11.1 372.141 11.22 372.781 11.46C373.421 11.6867 373.888 11.9067 374.181 12.12L371.821 17.06C371.635 16.8333 371.301 16.6 370.821 16.36C370.355 16.1067 369.768 15.98 369.061 15.98C368.248 15.98 367.575 16.1867 367.041 16.6C366.521 17.0133 366.135 17.5133 365.881 18.1C365.641 18.6867 365.521 19.24 365.521 19.76V28ZM375.401 28V11.58H381.021V28H375.401ZM390.573 28H384.473V0.479999H390.573V28ZM394.073 28V11.58H399.693V28H394.073ZM415.81 19.38L414.57 0.479999H421.13L419.89 19.38H415.81ZM417.83 28.48C417.177 28.48 416.577 28.32 416.03 28C415.484 27.6667 415.044 27.2267 414.71 26.68C414.377 26.1333 414.21 25.5267 414.21 24.86C414.21 23.8467 414.564 22.98 415.27 22.26C415.99 21.54 416.844 21.18 417.83 21.18C418.857 21.18 419.724 21.54 420.43 22.26C421.137 22.98 421.49 23.8467 421.49 24.86C421.49 25.8467 421.137 26.7 420.43 27.42C419.724 28.1267 418.857 28.48 417.83 28.48Z" fill="#F4802A"/>
</svg>
